<?xml version="1.0" standalone="no"?>
<!DOCTYPE svg PUBLIC "-//W3C//DTD SVG 20010904//EN"
 "http://www.w3.org/TR/2001/REC-SVG-20010904/DTD/svg10.dtd">
<svg version="1.0" xmlns="http://www.w3.org/2000/svg"
 width="31.88" height="32"  viewBox="0 0 256 257"
 preserveAspectRatio="xMidYMid meet">
<metadata>
Created by potrace 1.10, written by Peter Selinger 2001-2011
</metadata>
<g transform="translate(0.000000,183.000000) scale(0.100000,-0.100000)"
fill="#000000" stroke="none">
<path d="M1730 1367 c-39 -14 -80 -67 -80 -105 0 -16 14 -38 39 -63 28 -26 36
-39 26 -43 -11 -4 -184 -9 -231 -7 -7 1 -15 17 -18 36 -4 20 -20 51 -37 70
-41 46 -107 59 -264 52 -140 -7 -211 -25 -262 -70 -106 -93 -73 -250 58 -272
l41 -7 -26 -27 c-14 -15 -26 -35 -26 -45 0 -49 205 -65 252 -19 21 22 21 23 3
56 -30 57 -12 61 25 5 47 -70 84 -90 165 -90 59 0 64 -2 55 -19 -11 -19 -23
-24 -85 -35 -55 -9 -87 -27 -123 -68 -72 -82 -58 -196 28 -241 79 -41 180 10
180 91 0 38 -34 84 -62 84 -27 0 -18 23 13 31 13 4 65 7 116 8 81 1 95 4 119
24 l28 24 -24 33 -24 33 24 91 c13 50 28 101 33 114 13 29 42 28 62 -2 9 -13
23 -27 32 -30 27 -11 61 21 69 61 4 21 22 66 41 101 38 72 41 112 14 162 -31
60 -100 88 -161 67z m112 -57 c28 -29 30 -35 26 -86 -4 -41 -11 -61 -31 -82
-19 -19 -29 -44 -34 -82 -6 -42 -13 -56 -27 -58 -15 -3 -18 0 -13 20 10 39 -4
49 -63 46 l-54 -3 -38 -140 c-21 -77 -38 -146 -38 -152 0 -8 13 -13 30 -13 19
0 30 -5 30 -14 0 -11 -27 -15 -122 -18 -129 -4 -164 -14 -203 -58 -24 -26 -28
-108 -6 -133 19 -23 68 -22 81 2 16 30 12 52 -10 58 -11 3 -20 9 -20 14 0 15
37 10 54 -7 26 -25 19 -60 -16 -89 -91 -77 -205 53 -135 155 34 50 65 68 145
83 40 8 75 17 78 20 6 6 83 273 84 290 0 4 -25 7 -55 7 -53 0 -57 -2 -76 -35
-12 -19 -28 -35 -36 -35 -8 0 -13 4 -11 8 2 4 11 30 22 57 l18 50 136 -4 c155
-4 199 6 236 50 64 75 3 206 -65 138 -25 -25 -21 -51 9 -64 27 -12 29 -25 4
-25 -56 0 -73 68 -28 107 40 34 90 31 128 -7z m-489 -51 c45 -12 77 -44 77
-77 0 -39 -37 -89 -79 -108 l-38 -17 36 -66 c26 -48 45 -70 69 -80 17 -8 32
-21 32 -29 0 -12 -12 -14 -60 -9 -79 7 -104 25 -142 102 -27 55 -36 65 -58 65
-22 0 -28 -6 -38 -45 -18 -68 -16 -83 13 -87 14 -2 27 -7 28 -13 1 -6 -42 -11
-111 -13 -89 -2 -113 0 -110 10 3 7 16 14 31 16 14 2 31 10 37 17 13 16 80
254 80 285 0 16 -7 20 -31 20 -53 0 -109 -22 -135 -53 -46 -54 -26 -157 31
-157 29 0 45 18 45 51 0 18 -6 28 -20 32 -24 6 -27 27 -3 27 52 0 71 -75 27
-109 -78 -61 -182 20 -154 120 17 59 73 103 153 119 61 12 276 12 320 -1z
m-283 -89 c0 -22 -16 -26 -40 -10 -13 9 -13 11 0 20 24 16 40 12 40 -10z m426
-187 c-8 -60 -17 -69 -50 -48 -33 22 -33 32 1 67 42 43 57 38 49 -19z"/>
<path d="M1215 1228 c-2 -7 -13 -46 -24 -85 l-19 -73 39 0 c56 0 98 25 116 67
18 45 10 81 -23 93 -36 14 -84 12 -89 -2z m72 -44 c9 -24 -14 -64 -38 -64 -18
0 -20 4 -14 33 10 44 40 63 52 31z"/>
</g>
</svg>
